[img]http://img684.imageshack.us/img684/2543/65087040.jpg[/img]
[code]
Rio R5 line XViD - IMAGiNE

Ripper ...........:IMAGiNE                                         IMDB Rating.......:7.5/10            
Video Codec.......:XVID                                            Release Date......:12/04/11
Audio Codec.......:MP3                                             Theatre Date......:15/04/11
Audio Bitrate.....:128                                             Runtime...........:1h 31mn
Subtitles.........:NIL                                             Language..........:ENGLISH
Resolution........:720 x 304                                      IMDb URL.......... http://www.imdb.com/title/tt1436562/


DETAILS:

Video
ID                               : 0
Format                           : MPEG-4 Visual
Format profile                   : Advanced Simple@L5
Format settings, BVOP            : Yes
Format settings, QPel            : No
Format settings, GMC             : No warppoints
Format settings, Matrix          : Default (MPEG)
Muxing mode                      : Packed bitstream
Codec ID                         : XVID
Codec ID/Hint                    : XviD
Duration                         : 1h 31mn
Bit rate                         : 1 960 Kbps
Width                            : 720 pixels
Height                           : 304 pixels
Display aspect ratio             : 2.35:1
Frame rate                       : 25.000 fps
Color space                      : YUV
Chroma subsampling               : 4:2:0
Bit depth                        : 8 bits
Scan type                        : Progressive
Compression mode                 : Lossy
Bits/(Pixel*Frame)               : 0.358
Stream size                      : 1.26 GiB (93%)
Writing library                  : XviD 61

Audio
ID                               : 1
Format                           : MPEG Audio
Format version                   : Version 1
Format profile                   : Layer 
Mode                             : Joint stereo
Mode extension                   : MS Stereo
Codec ID                         : 55
Codec ID/Hint                    : MP3
Duration                         : 1h 31mn
Bit rate mode                    : Constant
Bit rate                         : 128 Kbps
Channel(s)                       : 2 channels
Sampling rate                    : 44.1 KHz
Compression mode                 : Lossy
Stream size                      : 84.2 MiB (6%)
Alignment                        : Split accross interleaves
Interleave, duration             : 40 ms (1.00 video frame)
Interleave, preload duration     : 500 ms
Writing library                  : LAME3.98r
Encoding settings                : -m j -V 4 -q 2 -lowpass 17 -b 128

PLOT:
When Blu, a domesticated macaw from small-town Minnesota, meets the fiercely independent Jewel, he takes off on an adventure to Rio de Janeiro with this bird of his dreams.

SOURCES:
VIDEO:Rio.DVD.R5.R.G.KINOPARK ............ Thanks
AUDIO:Rio ....Thanks m8ty

NOTES:
IMAGiNE bringing you another release.......... Rio 

We first of thanks to our friends from KINOPARK for the vobs... Thanks MateOkay on to the release, the video was not the best R5 we have seen but we did some improvements... 
We started off making a script to crop, resize, and a slight sparpening script...
Then on to the RGB EG to do a few things with the colors to bring them out a little better and clearer...
Now onto the audio, we used our original line audio and synced that to this release then simply muxed the audio and video together... 

Enjoy Another Fine Release By IMAGiNE...!!!
[/code]
Screens:
[img]http://img808.imageshack.us/img808/6448/31674909.jpg[/img]
[img]http://img29.imageshack.us/img29/8804/40900952.jpg[/img]
[img]http://img825.imageshack.us/img825/6189/57328189.jpg[/img]
[img]http://img171.imageshack.us/img171/7365/92675250.jpg[/img]
[img]http://img854.imageshack.us/img854/7507/35318058.jpg[/img]